# Blender v2.76 (sub 0) OBJ File: 'chair.blend'
# www.blender.org
o Cube.001_Cube.002
v 0.200000 0.000000 0.200000
v 0.200000 0.450000 0.200000
v 0.300000 0.000000 0.200000
v 0.300000 0.450000 0.200000
v 0.200000 0.000000 0.300000
v 0.200000 0.450000 0.300000
v 0.300000 0.000000 0.300000
v 0.300000 0.450000 0.300000
vt 0.200000 0.000000
vt 0.200000 1.000000
vt 0.000000 1.000000
vt 0.400000 0.000000
vt 0.800000 0.000000
vt 0.800000 1.000000
vt 0.600000 1.000000
vt 0.600000 0.000000
vt 0.400000 1.000000
vt 0.800000 0.444444
vt 0.800000 0.222222
vt 1.000000 0.222222
vt 1.000000 0.000000
vt 0.000000 0.000000
vt 1.000000 0.444444
vn 0.000000 0.000000 -1.000000
vn 1.000000 0.000000 0.000000
vn 0.000000 0.000000 1.000000
vn -1.000000 -0.000000 0.000000
vn 0.000000 -1.000000 0.000000
vn 0.000000 1.000000 0.000000
s off
f 4/1/1 3/2/1 1/3/1
f 8/2/2 7/1/2 3/4/2
f 6/5/3 5/6/3 7/7/3
f 2/8/4 1/7/4 5/9/4
f 3/10/5 7/11/5 5/12/5
f 8/13/6 4/12/6 2/11/6
f 2/14/1 4/1/1 1/3/1
f 4/9/2 8/2/2 3/4/2
f 8/8/3 6/5/3 7/7/3
f 6/4/4 2/8/4 5/9/4
f 1/15/5 3/10/5 5/12/5
f 6/5/6 8/13/6 2/11/6
o Cube_Cube.001
v 0.800000 0.450000 0.200000
v 0.800000 0.550000 0.200000
v 0.800000 0.450000 0.800000
v 0.800000 0.550000 0.800000
v 0.200000 0.450000 0.200000
v 0.200000 0.550000 0.200000
v 0.200000 0.450000 0.800000
v 0.200000 0.550000 0.800000
vt 0.900000 0.000000
vt 1.000000 0.000000
vt 1.000000 0.500000
vt 0.800000 0.000000
vt 0.900000 0.500000
vt 0.600000 0.000000
vt 0.700000 0.000000
vt 0.700000 0.500000
vt 0.800000 0.500000
vt 0.000000 0.500000
vt 0.000000 0.000000
vt 0.600000 1.000000
vt 0.000000 1.000000
vt 0.600000 0.500000
vn 1.000000 -0.000000 0.000000
vn -0.000000 0.000000 1.000000
vn -1.000000 -0.000000 -0.000000
vn 0.000000 0.000000 -1.000000
vn 0.000000 -1.000000 -0.000000
vn 0.000000 1.000000 0.000000
s off
f 12/16/7 11/17/7 9/18/7
f 16/19/8 15/16/8 11/20/8
f 14/21/9 13/22/9 15/23/9
f 10/24/10 9/23/10 13/22/10
f 11/25/11 15/26/11 13/21/11
f 16/27/12 12/28/12 10/25/12
f 10/20/7 12/16/7 9/18/7
f 12/24/8 16/19/8 11/20/8
f 16/29/9 14/21/9 15/23/9
f 14/19/10 10/24/10 13/22/10
f 9/29/11 11/25/11 13/21/11
f 14/29/12 16/27/12 10/25/12
o Cube.002_Cube.003
v 0.200000 0.000000 0.700000
v 0.200000 0.450000 0.700000
v 0.300000 0.000000 0.700000
v 0.300000 0.450000 0.700000
v 0.200000 0.000000 0.800000
v 0.200000 0.450000 0.800000
v 0.300000 0.000000 0.800000
v 0.300000 0.450000 0.800000
vt 0.200000 0.000000
vt 0.200000 1.000000
vt 0.000000 1.000000
vt 0.400000 0.000000
vt 0.800000 0.000000
vt 0.800000 1.000000
vt 0.600000 1.000000
vt 0.600000 0.000000
vt 0.400000 1.000000
vt 0.800000 0.444444
vt 0.800000 0.222222
vt 1.000000 0.222222
vt 1.000000 0.000000
vt 0.000000 0.000000
vt 1.000000 0.444444
vn 0.000000 0.000000 -1.000000
vn 1.000000 -0.000000 0.000000
vn 0.000000 0.000000 1.000000
vn -1.000000 0.000000 0.000000
vn 0.000000 -1.000000 0.000000
vn 0.000000 1.000000 0.000000
s off
f 20/30/13 19/31/13 17/32/13
f 24/31/14 23/30/14 19/33/14
f 22/34/15 21/35/15 23/36/15
f 18/37/16 17/36/16 21/38/16
f 19/39/17 23/40/17 21/41/17
f 24/42/18 20/41/18 18/40/18
f 18/43/13 20/30/13 17/32/13
f 20/38/14 24/31/14 19/33/14
f 24/37/15 22/34/15 23/36/15
f 22/33/16 18/37/16 21/38/16
f 17/44/17 19/39/17 21/41/17
f 22/34/18 24/42/18 18/40/18
o Cube.003_Cube.004
v 0.700000 0.000000 0.200000
v 0.700000 0.450000 0.200000
v 0.800000 0.000000 0.200000
v 0.800000 0.450000 0.200000
v 0.700000 0.000000 0.300000
v 0.700000 0.450000 0.300000
v 0.800000 0.000000 0.300000
v 0.800000 0.450000 0.300000
vt 0.200000 0.000000
vt 0.200000 1.000000
vt 0.000000 1.000000
vt 0.400000 0.000000
vt 0.800000 0.000000
vt 0.800000 1.000000
vt 0.600000 1.000000
vt 0.600000 0.000000
vt 0.400000 1.000000
vt 0.800000 0.444444
vt 0.800000 0.222222
vt 1.000000 0.222222
vt 1.000000 0.000000
vt 0.000000 0.000000
vt 1.000000 0.444444
vn 0.000000 0.000000 -1.000000
vn 1.000000 0.000000 0.000000
vn 0.000000 0.000000 1.000000
vn -1.000000 0.000000 0.000000
vn 0.000000 -1.000000 0.000000
vn 0.000000 1.000000 -0.000000
s off
f 28/45/19 27/46/19 25/47/19
f 32/46/20 31/45/20 27/48/20
f 30/49/21 29/50/21 31/51/21
f 26/52/22 25/51/22 29/53/22
f 27/54/23 31/55/23 29/56/23
f 32/57/24 28/56/24 26/55/24
f 26/58/19 28/45/19 25/47/19
f 28/53/20 32/46/20 27/48/20
f 32/52/21 30/49/21 31/51/21
f 30/48/22 26/52/22 29/53/22
f 25/59/23 27/54/23 29/56/23
f 30/49/24 32/57/24 26/55/24
o Cube.004_Cube.005
v 0.700000 0.000000 0.700000
v 0.700000 0.450000 0.700000
v 0.800000 0.000000 0.700000
v 0.800000 0.450000 0.700000
v 0.700000 0.000000 0.800000
v 0.700000 0.450000 0.800000
v 0.800000 0.000000 0.800000
v 0.800000 0.450000 0.800000
vt 0.200000 0.000000
vt 0.200000 1.000000
vt 0.000000 1.000000
vt 0.400000 0.000000
vt 0.800000 0.000000
vt 0.800000 1.000000
vt 0.600000 1.000000
vt 0.600000 0.000000
vt 0.400000 1.000000
vt 0.800000 0.444444
vt 0.800000 0.222222
vt 1.000000 0.222222
vt 1.000000 0.000000
vt 0.000000 0.000000
vt 1.000000 0.444444
vn 0.000000 0.000000 -1.000000
vn 1.000000 -0.000000 0.000000
vn 0.000000 0.000000 1.000000
vn -1.000000 -0.000000 0.000000
vn 0.000000 -1.000000 0.000000
vn 0.000000 1.000000 -0.000000
s off
f 36/60/25 35/61/25 33/62/25
f 40/61/26 39/60/26 35/63/26
f 38/64/27 37/65/27 39/66/27
f 34/67/28 33/66/28 37/68/28
f 35/69/29 39/70/29 37/71/29
f 40/72/30 36/71/30 34/70/30
f 34/73/25 36/60/25 33/62/25
f 36/68/26 40/61/26 35/63/26
f 40/67/27 38/64/27 39/66/27
f 38/63/28 34/67/28 37/68/28
f 33/74/29 35/69/29 37/71/29
f 38/64/30 40/72/30 34/70/30
o Cube.005_Cube.000
v 0.200000 1.150000 0.300000
v 0.200000 1.150000 0.200000
v 0.200000 0.550000 0.300000
v 0.200000 0.550000 0.200000
v 0.800000 1.150000 0.300000
v 0.800000 1.150000 0.200000
v 0.800000 0.550000 0.300000
v 0.800000 0.550000 0.200000
vt 0.900000 0.000000
vt 1.000000 0.000000
vt 1.000000 0.500000
vt 0.800000 0.000000
vt 0.900000 0.500000
vt 0.600000 0.000000
vt 0.700000 0.000000
vt 0.700000 0.500000
vt 0.800000 0.500000
vt 0.000000 0.500000
vt 0.000000 0.000000
vt 0.600000 1.000000
vt 0.000000 1.000000
vt 0.600000 0.500000
vn -1.000000 0.000000 -0.000000
vn 0.000000 -1.000000 0.000000
vn 1.000000 0.000000 0.000000
vn 0.000000 1.000000 -0.000000
vn -0.000000 -0.000000 1.000000
vn 0.000000 0.000000 -1.000000
s off
f 44/75/31 43/76/31 41/77/31
f 48/78/32 47/75/32 43/79/32
f 46/80/33 45/81/33 47/82/33
f 46/78/34 42/83/34 41/82/34
f 43/84/35 47/85/35 45/80/35
f 48/86/36 44/87/36 42/84/36
f 42/79/31 44/75/31 41/77/31
f 44/83/32 48/78/32 43/79/32
f 48/88/33 46/80/33 47/82/33
f 45/81/34 46/78/34 41/82/34
f 41/88/35 43/84/35 45/80/35
f 46/88/36 48/86/36 42/84/36
