# Blender v2.76 (sub 0) OBJ File: 'cylinder.blend'
# www.blender.org
v 0.961940 0.000000 0.308658
v 0.961940 1.000000 0.308658
v 0.961940 0.000000 0.691342
v 0.961940 1.000000 0.691342
v 0.691342 0.000000 0.961940
v 0.691342 1.000000 0.961940
v 0.308658 0.000000 0.961940
v 0.308658 1.000000 0.961940
v 0.038060 0.000000 0.691342
v 0.038060 1.000000 0.691342
v 0.038060 0.000000 0.308658
v 0.038060 1.000000 0.308658
v 0.308658 0.000000 0.038060
v 0.308658 1.000000 0.038060
v 0.691342 0.000000 0.038060
v 0.691342 1.000000 0.038060
vt 0.375000 1.000000
vt 0.250000 1.000000
vt 0.250000 0.000000
vt 0.125000 1.000000
vt 0.125000 0.000000
vt 0.000000 1.000000
vt 0.000000 0.000000
vt 1.000000 1.000000
vt 0.875000 1.000000
vt 0.875000 0.000000
vt 0.750000 1.000000
vt 0.750000 0.000000
vt 0.625000 1.000000
vt 0.625000 0.000000
vt 0.306615 0.038912
vt 0.038912 0.693385
vt 0.693384 0.961088
vt 0.500000 1.000000
vt 0.375000 0.000000
vt 0.500000 0.000000
vt 0.308552 0.038104
vt 0.308764 0.961984
vt 0.691448 0.961896
vt 1.000000 0.000000
vt 0.962782 0.689295
vt 0.961088 0.306615
vt 0.689295 0.037218
vt 0.037218 0.310705
vt 0.310705 0.962782
vt 0.961984 0.691236
vt 0.961896 0.308552
vt 0.691236 0.038016
vt 0.038016 0.308764
vt 0.038104 0.691448
vn 1.000000 -0.000000 0.000000
vn 0.707100 0.000000 0.707100
vn 0.000000 0.000000 1.000000
vn -0.707100 0.000000 0.707100
vn -1.000000 0.000000 -0.000000
vn -0.707100 0.000000 -0.707100
vn 0.000000 1.000000 -0.000000
vn 0.707100 0.000000 -0.707100
vn -0.000000 -0.000000 -1.000000
vn 0.000000 -1.000000 0.000000
s off
f 2/1/1 4/2/1 3/3/1
f 4/2/2 6/4/2 5/5/2
f 6/4/3 8/6/3 7/7/3
f 8/8/4 10/9/4 9/10/4
f 10/9/5 12/11/5 11/12/5
f 12/11/6 14/13/6 13/14/6
f 14/15/7 10/16/7 6/17/7
f 16/18/8 2/1/8 1/19/8
f 14/13/9 16/18/9 15/20/9
f 7/21/10 13/22/10 15/23/10
f 1/19/1 2/1/1 3/3/1
f 3/3/2 4/2/2 5/5/2
f 5/5/3 6/4/3 7/7/3
f 7/24/4 8/8/4 9/10/4
f 9/10/5 10/9/5 11/12/5
f 11/12/6 12/11/6 13/14/6
f 6/17/7 4/25/7 2/26/7
f 2/26/7 16/27/7 14/15/7
f 14/15/7 12/28/7 10/16/7
f 10/16/7 8/29/7 6/17/7
f 6/17/7 2/26/7 14/15/7
f 15/20/8 16/18/8 1/19/8
f 13/14/9 14/13/9 15/20/9
f 15/23/10 1/30/10 3/31/10
f 3/31/10 5/32/10 7/21/10
f 7/21/10 9/33/10 11/34/10
f 11/34/10 13/22/10 7/21/10
f 15/23/10 3/31/10 7/21/10
