# Blender v2.76 (sub 0) OBJ File: 'sphere.blend'
# www.blender.org
o Sphere
v 0.500000 0.961940 0.308658
v 0.500000 0.853553 0.146447
v 0.500000 0.691342 0.038060
v 0.500000 0.500000 0.000000
v 0.500000 0.308658 0.038060
v 0.500000 0.146447 0.146447
v 0.500000 0.038060 0.308658
v 0.573223 0.961940 0.323223
v 0.635299 0.853553 0.173359
v 0.676777 0.691342 0.073223
v 0.691342 0.500000 0.038060
v 0.676777 0.308658 0.073223
v 0.635299 0.146447 0.173359
v 0.573223 0.038060 0.323223
v 0.635299 0.961940 0.364701
v 0.750000 0.853553 0.250000
v 0.826641 0.691342 0.173359
v 0.853553 0.500000 0.146447
v 0.826641 0.308658 0.173359
v 0.750000 0.146447 0.250000
v 0.635299 0.038060 0.364701
v 0.500000 0.000000 0.500000
v 0.676777 0.961940 0.426777
v 0.826641 0.853553 0.364701
v 0.926777 0.691342 0.323223
v 0.961940 0.500000 0.308658
v 0.926777 0.308658 0.323223
v 0.826641 0.146447 0.364701
v 0.676777 0.038060 0.426777
v 0.691342 0.961940 0.500000
v 0.853553 0.853553 0.500000
v 0.961940 0.691342 0.500000
v 1.000000 0.500000 0.500000
v 0.961940 0.308658 0.500000
v 0.853553 0.146447 0.500000
v 0.691342 0.038060 0.500000
v 0.676777 0.961940 0.573223
v 0.826641 0.853553 0.635299
v 0.926777 0.691342 0.676777
v 0.961940 0.500000 0.691342
v 0.926777 0.308658 0.676777
v 0.826641 0.146447 0.635299
v 0.676777 0.038060 0.573223
v 0.500000 1.000000 0.500000
v 0.635299 0.961940 0.635299
v 0.750000 0.853553 0.750000
v 0.826641 0.691342 0.826641
v 0.853553 0.500000 0.853553
v 0.826641 0.308658 0.826641
v 0.750000 0.146447 0.750000
v 0.635299 0.038060 0.635299
v 0.573223 0.961940 0.676777
v 0.635299 0.853553 0.826641
v 0.676777 0.691342 0.926777
v 0.691342 0.500000 0.961940
v 0.676777 0.308658 0.926777
v 0.635299 0.146447 0.826641
v 0.573223 0.038060 0.676777
v 0.500000 0.961940 0.691342
v 0.500000 0.853553 0.853553
v 0.500000 0.691342 0.961940
v 0.500000 0.500000 1.000000
v 0.500000 0.308658 0.961940
v 0.500000 0.146447 0.853553
v 0.500000 0.038060 0.691342
v 0.426777 0.961940 0.676777
v 0.364701 0.853553 0.826640
v 0.323223 0.691342 0.926776
v 0.308658 0.500000 0.961940
v 0.323223 0.308658 0.926776
v 0.364701 0.146447 0.826640
v 0.426777 0.038060 0.676777
v 0.364701 0.961940 0.635299
v 0.250000 0.853553 0.750000
v 0.173359 0.691342 0.826640
v 0.146447 0.500000 0.853553
v 0.173359 0.308658 0.826640
v 0.250000 0.146447 0.750000
v 0.364701 0.038060 0.635299
v 0.323223 0.961940 0.573223
v 0.173359 0.853553 0.635299
v 0.073223 0.691342 0.676776
v 0.038060 0.500000 0.691341
v 0.073223 0.308658 0.676776
v 0.173359 0.146447 0.635299
v 0.323223 0.038060 0.573223
v 0.308658 0.961940 0.500000
v 0.146447 0.853553 0.500000
v 0.038060 0.691342 0.500000
v 0.000000 0.500000 0.500000
v 0.038060 0.308658 0.500000
v 0.146447 0.146447 0.500000
v 0.308658 0.038060 0.500000
v 0.323223 0.961940 0.426777
v 0.173359 0.853553 0.364701
v 0.073224 0.691342 0.323223
v 0.038060 0.500000 0.308658
v 0.073224 0.308658 0.323223
v 0.173359 0.146447 0.364701
v 0.323223 0.038060 0.426777
v 0.364701 0.961940 0.364701
v 0.250000 0.853553 0.250000
v 0.173360 0.691342 0.173359
v 0.146447 0.500000 0.146446
v 0.173360 0.308658 0.173359
v 0.250000 0.146447 0.250000
v 0.364701 0.038060 0.364701
v 0.426777 0.961940 0.323223
v 0.364701 0.853553 0.173359
v 0.323224 0.691342 0.073223
v 0.308659 0.500000 0.038060
v 0.323224 0.308658 0.073223
v 0.364701 0.146447 0.173359
v 0.426777 0.038060 0.323223
vt 0.147162 0.325427
vt 0.147162 0.201737
vt 0.237588 0.206444
vt 0.321243 0.307313
vt 0.237588 0.320719
vt 0.517186 0.673059
vt 0.482555 0.673059
vt 0.467875 0.564072
vt 0.210163 1.000000
vt 0.146172 1.000000
vt 0.160852 0.908981
vt 0.000000 0.307313
vt 0.000000 0.219851
vt 0.063732 0.206444
vt 0.063732 0.320719
vt 0.154158 0.087462
vt 0.244051 0.100868
vt 0.326190 0.139046
vt 0.450559 0.691017
vt 0.408755 0.597255
vt 0.087052 0.966817
vt 0.128856 0.891022
vt 0.004947 0.139046
vt 0.070196 0.100868
vt 0.981526 0.341587
vt 0.921975 0.328521
vt 0.928166 0.205216
vt 0.167085 0.000000
vt 0.255994 0.020064
vt 0.335331 0.077201
vt 0.426071 0.724200
vt 0.041804 0.905503
vt 0.942942 0.452231
vt 0.897363 0.442230
vt 0.017316 0.825392
vt 0.091115 0.814484
vt 0.838092 0.438718
vt 0.844534 0.323933
vt 0.844345 0.200250
vt 0.837553 0.086500
vt 0.914994 0.091088
vt 0.825194 0.000000
vt 0.412818 0.767556
vt 0.339019 0.738680
vt 0.754013 0.091088
vt 0.412818 0.814484
vt 0.339019 0.825392
vt 0.017316 0.738680
vt 0.091115 0.767556
vt 0.774153 0.442230
vt 0.760993 0.328521
vt 0.753921 0.205216
vt 0.670662 0.219359
vt 0.677091 0.104155
vt 0.702381 0.013512
vt 0.426071 0.857839
vt 0.041804 0.658570
vt 0.104368 0.724200
vt 0.715280 0.452231
vt 0.684072 0.341587
vt 0.591325 0.020064
vt 0.579382 0.100868
vt 0.489489 0.087462
vt 0.502416 0.000000
vt 0.405527 0.100868
vt 0.000000 0.607274
vt 0.059120 0.527163
vt 0.450559 0.891022
vt 0.408755 0.966817
vt 0.087052 0.597255
vt 0.128856 0.691017
vt 0.670662 0.077201
vt 0.661521 0.139046
vt 0.146172 0.564072
vt 0.656574 0.219851
vt 0.572918 0.206444
vt 0.482493 0.201737
vt 0.399063 0.206444
vt 0.335331 0.219851
vt 0.482555 0.908981
vt 0.467875 1.000000
vt 0.399063 0.320719
vt 0.517186 0.908981
vt 0.160852 0.673058
vt 0.210163 0.564072
vt 0.656574 0.307313
vt 0.572918 0.320719
vt 0.482493 0.325427
vt 0.489489 0.439701
vt 0.405527 0.426295
vt 0.340278 0.388117
vt 0.549181 0.891022
vt 0.590985 0.966817
vt 0.269282 0.597255
vt 0.227478 0.691017
vt 0.661521 0.388117
vt 0.579382 0.426295
vt 0.591325 0.507099
vt 0.502416 0.527163
vt 0.678037 0.746523
vt 0.742495 0.732380
vt 0.748687 0.855684
vt 0.689135 0.868751
vt 0.773299 0.969393
vt 0.573670 0.857839
vt 0.636234 0.905503
vt 0.314531 0.658569
vt 0.670662 0.449962
vt 0.265220 0.767556
vt 0.786197 0.530675
vt 0.845468 0.527163
vt 0.833108 0.613663
vt 0.755667 0.618252
vt 0.826317 0.727413
vt 0.826128 0.851096
vt 0.832570 0.965882
vt 0.586922 0.814484
vt 0.660722 0.825392
vt 0.909668 0.855684
vt 0.896509 0.969393
vt 0.586922 0.767556
vt 0.660722 0.738680
vt 0.265220 0.814484
vt 0.909407 0.530675
vt 0.916649 0.618252
vt 0.916740 0.732380
vt 1.000000 0.746523
vt 0.986590 0.868751
vt 0.955382 0.979394
vt 0.573669 0.724200
vt 0.636234 0.658570
vt 0.314531 0.905503
vt 0.251967 0.857839
vt 0.968280 0.540676
vt 0.993570 0.631318
vt 0.082139 0.507099
vt 0.070196 0.426295
vt 0.154158 0.439701
vt 0.255994 0.507099
vt 0.167085 0.527163
vt 0.244051 0.426295
vt 0.326190 0.388117
vt 0.549181 0.691017
vt 0.269282 0.966817
vt 0.590985 0.597255
vt 0.618918 0.527163
vt 0.499870 0.794174
vt 0.178167 0.794174
vt 0.195483 0.908981
vt 0.104368 0.857839
vt 0.195483 0.673058
vt 0.251967 0.724200
vt 0.227478 0.891022
vt 0.004947 0.388117
vt 0.321243 0.219851
vt 0.531866 0.564072
vt 0.992624 0.219359
vt 0.363507 0.658570
vt 0.884464 0.003512
vt 0.761255 0.003512
vt 0.363507 0.905503
vt 0.417470 0.020064
vt 0.340278 0.139046
vt 0.335331 0.307313
vt 0.531866 1.000000
vt 0.727720 0.979394
vt 0.335331 0.449962
vt 0.678037 0.607274
vn 0.191500 -0.191500 -0.962600
vn 0.163200 -0.548100 -0.820300
vn 0.109800 0.826400 -0.552200
vn 0.109800 -0.826400 -0.552200
vn 0.163200 0.548100 -0.820300
vn 0.191500 0.191500 -0.962600
vn 0.545300 -0.191500 -0.816100
vn 0.464700 -0.548100 -0.695400
vn 0.312800 0.826400 -0.468100
vn 0.312800 -0.826400 -0.468100
vn 0.464700 0.548100 -0.695400
vn 0.545300 0.191500 -0.816100
vn 0.816100 0.191500 -0.545300
vn 0.816100 -0.191500 -0.545300
vn 0.695400 -0.548100 -0.464700
vn 0.468100 0.826400 -0.312800
vn 0.468100 -0.826400 -0.312800
vn 0.695400 0.548100 -0.464700
vn 0.552200 -0.826400 -0.109800
vn 0.820300 0.548100 -0.163200
vn 0.962600 0.191500 -0.191500
vn 0.962600 -0.191500 -0.191500
vn 0.820300 -0.548100 -0.163200
vn 0.552200 0.826400 -0.109800
vn 0.820300 -0.548100 0.163200
vn 0.552200 0.826400 0.109800
vn 0.552200 -0.826400 0.109800
vn 0.820300 0.548100 0.163200
vn 0.962600 0.191500 0.191500
vn 0.962600 -0.191500 0.191500
vn 0.816100 -0.191500 0.545300
vn 0.695400 -0.548100 0.464700
vn 0.468100 0.826400 0.312800
vn 0.468100 -0.826400 0.312800
vn 0.695400 0.548100 0.464700
vn 0.816100 0.191500 0.545300
vn 0.545300 0.191500 0.816100
vn 0.545300 -0.191500 0.816100
vn 0.464700 -0.548100 0.695400
vn 0.312800 0.826400 0.468100
vn 0.312800 -0.826400 0.468100
vn 0.464700 0.548100 0.695400
vn 0.109800 -0.826400 0.552200
vn 0.163200 0.548100 0.820300
vn 0.191500 0.191500 0.962600
vn 0.191500 -0.191500 0.962600
vn 0.163200 -0.548100 0.820300
vn 0.109800 0.826400 0.552200
vn -0.163200 -0.548100 0.820300
vn -0.109800 0.826400 0.552200
vn -0.109800 -0.826400 0.552200
vn -0.163200 0.548100 0.820300
vn -0.191500 0.191500 0.962600
vn -0.191500 -0.191500 0.962600
vn -0.545300 -0.191500 0.816100
vn -0.464700 -0.548100 0.695400
vn -0.312800 0.826400 0.468100
vn -0.312800 -0.826400 0.468100
vn -0.464700 0.548100 0.695400
vn -0.545300 0.191500 0.816100
vn -0.816100 0.191500 0.545300
vn -0.816100 -0.191500 0.545300
vn -0.695400 -0.548100 0.464700
vn -0.468100 0.826400 0.312800
vn -0.468100 -0.826400 0.312800
vn -0.695400 0.548100 0.464700
vn -0.552200 -0.826400 0.109800
vn -0.820300 0.548100 0.163200
vn -0.962600 0.191500 0.191500
vn -0.962600 -0.191500 0.191500
vn -0.820300 -0.548100 0.163200
vn -0.552200 0.826400 0.109800
vn -0.820300 -0.548100 -0.163200
vn -0.552200 0.826400 -0.109800
vn -0.552200 -0.826400 -0.109800
vn -0.820300 0.548100 -0.163200
vn -0.962600 0.191500 -0.191500
vn -0.962600 -0.191500 -0.191500
vn -0.816100 -0.191500 -0.545300
vn -0.695400 -0.548100 -0.464700
vn -0.468100 0.826400 -0.312800
vn -0.468100 -0.826400 -0.312800
vn -0.695400 0.548100 -0.464700
vn -0.816100 0.191500 -0.545300
vn -0.545300 0.191500 -0.816100
vn -0.545300 -0.191500 -0.816100
vn -0.464700 -0.548100 -0.695400
vn -0.312800 0.826400 -0.468100
vn -0.312800 -0.826400 -0.468100
vn -0.464700 0.548100 -0.695400
vn 0.038800 0.980000 -0.194900
vn 0.038800 -0.980000 -0.194900
vn 0.110400 0.980000 -0.165300
vn 0.110400 -0.980000 -0.165300
vn 0.165300 -0.980000 -0.110400
vn 0.165300 0.980000 -0.110400
vn 0.194900 -0.980000 -0.038800
vn 0.194900 0.980000 -0.038800
vn 0.194900 -0.980000 0.038800
vn 0.194900 0.980000 0.038800
vn 0.165300 0.980000 0.110400
vn 0.165300 -0.980000 0.110400
vn 0.110400 -0.980000 0.165300
vn 0.110400 0.980000 0.165300
vn 0.038800 -0.980000 0.194900
vn 0.038800 0.980000 0.194900
vn -0.038800 -0.980000 0.194900
vn -0.038800 0.980000 0.194900
vn -0.110400 0.980000 0.165300
vn -0.110400 -0.980000 0.165300
vn -0.165300 -0.980000 0.110400
vn -0.165300 0.980000 0.110400
vn -0.194900 -0.980000 0.038800
vn -0.194900 0.980000 0.038800
vn -0.194900 -0.980000 -0.038800
vn -0.194900 0.980000 -0.038800
vn -0.165300 0.980000 -0.110400
vn -0.165300 -0.980000 -0.110400
vn -0.110400 -0.980000 -0.165300
vn -0.110400 0.980000 -0.165300
vn -0.109800 -0.826400 -0.552200
vn -0.163200 0.548100 -0.820300
vn -0.038800 -0.980000 -0.194900
vn -0.191500 0.191500 -0.962600
vn -0.191500 -0.191500 -0.962600
vn -0.038800 0.980000 -0.194900
vn -0.163200 -0.548100 -0.820300
vn -0.109800 0.826400 -0.552200
s off
f 4/1/1 11/2/1 12/3/1
f 6/4/2 5/5/2 12/3/2
f 1/6/3 8/7/3 9/8/3
f 6/9/4 13/10/4 14/11/4
f 2/12/5 9/13/5 10/14/5
f 3/15/6 10/14/6 11/2/6
f 11/2/7 18/16/7 19/17/7
f 12/3/8 19/17/8 20/18/8
f 8/7/9 15/19/9 16/20/9
f 13/10/10 20/21/10 21/22/10
f 9/13/11 16/23/11 17/24/11
f 10/14/12 17/24/12 18/16/12
f 17/25/13 25/26/13 26/27/13
f 19/17/14 18/16/14 26/28/14
f 19/17/15 27/29/15 28/30/15
f 16/20/16 15/19/16 23/31/16
f 21/22/17 20/21/17 28/32/17
f 16/33/18 24/34/18 25/26/18
f 28/32/19 35/35/19 36/36/19
f 25/26/20 24/34/20 31/37/20
f 25/26/21 32/38/21 33/39/21
f 26/27/22 33/39/22 34/40/22
f 27/41/23 34/40/23 35/42/23
f 23/31/24 30/43/24 31/44/24
f 35/42/25 34/40/25 41/45/25
f 30/43/26 37/46/26 38/47/26
f 35/35/27 42/48/27 43/49/27
f 31/37/28 38/50/28 39/51/28
f 32/38/29 39/51/29 40/52/29
f 33/39/30 40/52/30 41/45/30
f 40/52/31 48/53/31 49/54/31
f 41/45/32 49/54/32 50/55/32
f 38/47/33 37/46/33 45/56/33
f 42/48/34 50/57/34 51/58/34
f 38/50/35 46/59/35 47/60/35
f 39/51/36 47/60/36 48/53/36
f 47/61/37 54/62/37 55/63/37
f 48/64/38 55/63/38 56/65/38
f 50/57/39 49/66/39 56/67/39
f 45/56/40 52/68/40 53/69/40
f 50/57/41 57/70/41 58/71/41
f 46/72/42 53/73/42 54/62/42
f 58/71/43 57/70/43 64/74/43
f 54/62/44 53/73/44 60/75/44
f 54/62/45 61/76/45 62/77/45
f 56/65/46 55/63/46 62/77/46
f 56/65/47 63/78/47 64/79/47
f 52/68/48 59/80/48 60/81/48
f 64/79/49 63/78/49 70/82/49
f 60/81/50 59/80/50 66/83/50
f 65/84/51 64/74/51 71/85/51
f 60/75/52 67/86/52 68/87/52
f 61/76/53 68/87/53 69/88/53
f 63/78/54 62/77/54 69/88/54
f 70/82/55 69/88/55 76/89/55
f 70/82/56 77/90/56 78/91/56
f 66/83/57 73/92/57 74/93/57
f 71/85/58 78/94/58 79/95/58
f 67/86/59 74/96/59 75/97/59
f 68/87/60 75/97/60 76/89/60
f 75/97/61 82/98/61 83/99/61
f 76/100/62 83/101/62 84/102/62
f 77/103/63 84/102/63 85/104/63
f 73/92/64 80/105/64 81/106/64
f 79/95/65 78/94/65 85/107/65
f 74/96/66 81/108/66 82/98/66
f 85/107/67 92/44/67 93/109/67
f 81/110/68 88/111/68 89/112/68
f 82/113/69 89/112/69 90/114/69
f 84/102/70 83/101/70 90/114/70
f 84/102/71 91/115/71 92/116/71
f 80/105/72 87/117/72 88/118/72
f 91/115/73 98/119/73 99/120/73
f 87/117/74 94/121/74 95/122/74
f 92/44/75 99/47/75 100/123/75
f 88/111/76 95/124/76 96/125/76
f 89/112/77 96/125/77 97/126/77
f 91/115/78 90/114/78 97/126/78
f 97/126/79 104/127/79 105/128/79
f 98/119/80 105/128/80 106/129/80
f 94/121/81 101/130/81 102/131/81
f 99/47/82 106/132/82 107/133/82
f 96/125/83 95/124/83 102/134/83
f 96/125/84 103/135/84 104/127/84
f 103/136/85 110/137/85 111/138/85
f 105/139/86 104/140/86 111/138/86
f 105/139/87 112/141/87 113/142/87
f 102/131/88 101/130/88 108/143/88
f 107/133/89 106/132/89 113/144/89
f 102/131/90 109/145/90 110/146/90
f 1/6/91 44/147/91 8/7/91
f 22/148/92 7/149/92 14/11/92
f 8/7/93 44/147/93 15/19/93
f 22/148/94 14/11/94 21/22/94
f 22/148/95 21/22/95 29/150/95
f 15/19/96 44/147/96 23/31/96
f 22/148/97 29/150/97 36/36/97
f 23/31/98 44/147/98 30/43/98
f 22/148/99 36/36/99 43/49/99
f 30/43/100 44/147/100 37/46/100
f 37/46/101 44/147/101 45/56/101
f 22/148/102 43/49/102 51/58/102
f 22/148/103 51/58/103 58/71/103
f 45/56/104 44/147/104 52/68/104
f 22/148/105 58/71/105 65/84/105
f 52/68/106 44/147/106 59/80/106
f 22/148/107 65/84/107 72/151/107
f 59/80/108 44/147/108 66/83/108
f 66/83/109 44/147/109 73/92/109
f 22/148/110 72/151/110 79/95/110
f 22/148/111 79/95/111 86/152/111
f 73/92/112 44/147/112 80/105/112
f 22/148/113 86/152/113 93/109/113
f 80/105/114 44/147/114 87/117/114
f 22/148/115 93/109/115 100/123/115
f 87/117/116 44/147/116 94/121/116
f 94/121/117 44/147/117 101/130/117
f 22/148/118 100/123/118 107/133/118
f 22/148/119 107/133/119 114/153/119
f 101/130/120 44/147/120 108/143/120
f 113/144/121 6/9/121 7/149/121
f 110/137/122 109/154/122 2/12/122
f 22/148/123 114/153/123 7/149/123
f 111/138/124 110/137/124 3/15/124
f 111/138/125 4/1/125 5/5/125
f 108/143/126 44/147/126 1/6/126
f 112/141/127 5/5/127 6/4/127
f 109/145/128 108/143/128 1/6/128
f 5/5/1 4/1/1 12/3/1
f 13/155/2 6/4/2 12/3/2
f 2/156/3 1/6/3 9/8/3
f 7/149/4 6/9/4 14/11/4
f 3/15/5 2/12/5 10/14/5
f 4/1/6 3/15/6 11/2/6
f 12/3/7 11/2/7 19/17/7
f 13/155/8 12/3/8 20/18/8
f 9/8/9 8/7/9 16/20/9
f 14/11/10 13/10/10 21/22/10
f 10/14/11 9/13/11 17/24/11
f 11/2/12 10/14/12 18/16/12
f 18/157/13 17/25/13 26/27/13
f 27/29/14 19/17/14 26/28/14
f 20/18/15 19/17/15 28/30/15
f 24/158/16 16/20/16 23/31/16
f 29/150/17 21/22/17 28/32/17
f 17/25/18 16/33/18 25/26/18
f 29/150/19 28/32/19 36/36/19
f 32/38/20 25/26/20 31/37/20
f 26/27/21 25/26/21 33/39/21
f 27/41/22 26/27/22 34/40/22
f 28/159/23 27/41/23 35/42/23
f 24/158/24 23/31/24 31/44/24
f 42/160/25 35/42/25 41/45/25
f 31/44/26 30/43/26 38/47/26
f 36/36/27 35/35/27 43/49/27
f 32/38/28 31/37/28 39/51/28
f 33/39/29 32/38/29 40/52/29
f 34/40/30 33/39/30 41/45/30
f 41/45/31 40/52/31 49/54/31
f 42/160/32 41/45/32 50/55/32
f 46/161/33 38/47/33 45/56/33
f 43/49/34 42/48/34 51/58/34
f 39/51/35 38/50/35 47/60/35
f 40/52/36 39/51/36 48/53/36
f 48/64/37 47/61/37 55/63/37
f 49/162/38 48/64/38 56/65/38
f 57/70/39 50/57/39 56/67/39
f 46/161/40 45/56/40 53/69/40
f 51/58/41 50/57/41 58/71/41
f 47/61/42 46/72/42 54/62/42
f 65/84/43 58/71/43 64/74/43
f 61/76/44 54/62/44 60/75/44
f 55/63/45 54/62/45 62/77/45
f 63/78/46 56/65/46 62/77/46
f 57/163/47 56/65/47 64/79/47
f 53/69/48 52/68/48 60/81/48
f 71/164/49 64/79/49 70/82/49
f 67/165/50 60/81/50 66/83/50
f 72/151/51 65/84/51 71/85/51
f 61/76/52 60/75/52 68/87/52
f 62/77/53 61/76/53 69/88/53
f 70/82/54 63/78/54 69/88/54
f 77/90/55 70/82/55 76/89/55
f 71/164/56 70/82/56 78/91/56
f 67/165/57 66/83/57 74/93/57
f 72/151/58 71/85/58 79/95/58
f 68/87/59 67/86/59 75/97/59
f 69/88/60 68/87/60 76/89/60
f 76/89/61 75/97/61 83/99/61
f 77/103/62 76/100/62 84/102/62
f 78/166/63 77/103/63 85/104/63
f 74/93/64 73/92/64 81/106/64
f 86/152/65 79/95/65 85/107/65
f 75/97/66 74/96/66 82/98/66
f 86/152/67 85/107/67 93/109/67
f 82/113/68 81/110/68 89/112/68
f 83/101/69 82/113/69 90/114/69
f 91/115/70 84/102/70 90/114/70
f 85/104/71 84/102/71 92/116/71
f 81/106/72 80/105/72 88/118/72
f 92/116/73 91/115/73 99/120/73
f 88/118/74 87/117/74 95/122/74
f 93/109/75 92/44/75 100/123/75
f 89/112/76 88/111/76 96/125/76
f 90/114/77 89/112/77 97/126/77
f 98/119/78 91/115/78 97/126/78
f 98/119/79 97/126/79 105/128/79
f 99/120/80 98/119/80 106/129/80
f 95/122/81 94/121/81 102/131/81
f 100/123/82 99/47/82 107/133/82
f 103/135/83 96/125/83 102/134/83
f 97/126/84 96/125/84 104/127/84
f 104/140/85 103/136/85 111/138/85
f 112/141/86 105/139/86 111/138/86
f 106/167/87 105/139/87 113/142/87
f 109/145/88 102/131/88 108/143/88
f 114/153/89 107/133/89 113/144/89
f 103/168/90 102/131/90 110/146/90
f 114/153/121 113/144/121 7/149/121
f 3/15/122 110/137/122 2/12/122
f 4/1/124 111/138/124 3/15/124
f 112/141/125 111/138/125 5/5/125
f 113/142/127 112/141/127 6/4/127
f 2/156/128 109/145/128 1/6/128
