# Blender v2.76 (sub 0) OBJ File: 'table.blend'
# www.blender.org
o Cube_Cube.001
v 0.000000 0.900000 0.000000
v 0.000000 1.000000 0.000000
v 1.000000 0.900000 0.000000
v 1.000000 1.000000 0.000000
v 0.000000 0.900000 1.000000
v 0.000000 1.000000 1.000000
v 1.000000 0.900000 1.000000
v 1.000000 1.000000 1.000000
v 0.580000 0.000000 0.500000
v 0.580000 0.900000 0.500000
v 0.556569 0.000000 0.556569
v 0.556569 0.900000 0.556569
v 0.500000 0.000000 0.580000
v 0.500000 0.900000 0.580000
v 0.443431 0.000000 0.556569
v 0.443431 0.900000 0.556569
v 0.420000 0.000000 0.500000
v 0.420000 0.900000 0.500000
v 0.443431 0.000000 0.443431
v 0.443431 0.900000 0.443431
v 0.500000 0.000000 0.420000
v 0.500000 0.900000 0.420000
v 0.556569 0.000000 0.443431
v 0.556569 0.900000 0.443431
vt 1.000000 0.500000
vt 1.000000 0.625000
vt 0.000000 0.625000
vt 0.000000 1.000000
vt 0.000000 0.000000
vt 1.000000 0.000000
vt 1.000000 1.000000
vt 0.369398 0.000000
vt 0.445903 0.000000
vt 0.445903 1.000000
vt 0.554097 0.000000
vt 0.554097 1.000000
vt 0.184699 0.000000
vt 0.261204 0.000000
vt 0.261204 1.000000
vt 0.369398 1.000000
vt 0.630602 0.000000
vt 0.630602 1.000000
vt 0.738796 0.000000
vt 0.738796 1.000000
vt 0.815301 0.000000
vt 1.000000 0.048106
vt 0.923495 0.164245
vt 0.076505 0.000000
vt 0.184699 1.000000
vt 0.076505 1.000000
vt 0.815301 0.164245
vt 1.000000 0.280384
vt 0.000000 0.500000
vt 0.738796 0.116139
vt 0.738796 0.048106
vt 0.923495 0.000000
vt 1.000000 0.116139
vt 0.923495 0.328491
vt 0.815301 0.328491
vt 0.738796 0.280384
vt 0.738796 0.212352
vt 1.000000 0.212352
vn 0.000000 0.000000 -1.000000
vn 1.000000 0.000000 0.000000
vn 0.000000 0.000000 1.000000
vn -1.000000 0.000000 0.000000
vn 0.000000 -1.000000 0.000000
vn 0.000000 1.000000 0.000000
vn 0.923900 -0.000000 0.382700
vn 0.382700 0.000000 0.923900
vn -0.382700 -0.000000 0.923900
vn -0.923900 -0.000000 0.382700
vn -0.923900 -0.000000 -0.382700
vn -0.382700 -0.000000 -0.923900
vn 0.923900 0.000000 -0.382700
vn 0.382700 0.000000 -0.923900
s off
f 4/1/1 3/2/1 1/3/1
f 8/1/2 7/2/2 3/3/2
f 6/1/3 5/2/3 7/3/3
f 2/1/4 1/2/4 5/3/4
f 3/4/5 7/5/5 5/6/5
f 8/6/6 4/7/6 2/4/6
f 10/8/7 12/9/7 11/10/7
f 12/9/8 14/11/8 13/12/8
f 14/13/9 16/14/9 15/15/9
f 16/14/10 18/8/10 17/16/10
f 18/11/11 20/17/11 19/18/11
f 20/17/12 22/19/12 21/20/12
f 22/21/6 18/22/6 14/23/6
f 24/24/13 10/13/13 9/25/13
f 22/5/14 24/24/14 23/26/14
f 17/27/5 19/23/5 23/28/5
f 2/29/1 4/1/1 1/3/1
f 4/29/2 8/1/2 3/3/2
f 8/29/3 6/1/3 7/3/3
f 6/29/4 2/1/4 5/3/4
f 1/7/5 3/4/5 5/6/5
f 6/5/6 8/6/6 2/4/6
f 9/16/7 10/8/7 11/10/7
f 11/10/8 12/9/8 13/12/8
f 13/25/9 14/13/9 15/15/9
f 15/15/10 16/14/10 17/16/10
f 17/12/11 18/11/11 19/18/11
f 19/18/12 20/17/12 21/20/12
f 14/23/6 12/27/6 10/30/6
f 10/30/6 24/31/6 22/21/6
f 22/21/6 20/32/6 18/22/6
f 18/22/6 16/33/6 14/23/6
f 14/23/6 10/30/6 22/21/6
f 23/26/13 24/24/13 9/25/13
f 21/4/14 22/5/14 23/26/14
f 23/28/5 9/34/5 11/35/5
f 11/35/5 13/36/5 23/28/5
f 15/37/5 17/27/5 23/28/5
f 19/23/5 21/38/5 23/28/5
f 23/28/5 13/36/5 15/37/5
